<svg width="360" height="80" xmlns="http://www.w3.org/2000/svg" xmlns:svg="http://www.w3.org/2000/svg" aria-label="Crimson Sun logo" class="logo-svg">
 <title>Crimson Sun</title>
 <style>.logo-word { 
      font-family: -apple-system, BlinkMacSystemFont, &#x27;Segoe UI&#x27;, Roboto, &#x27;Helvetica Neue&#x27;, Arial, sans-serif; 
      font-weight: 800; 
      letter-spacing: -0.5px;
    }
    .logo-word--left, .logo-word--right { font-size: 32px; }
    .sun-core { filter: drop-shadow(0 0 20px rgba(255, 106, 106, 0.6)); }
    .sun-rays line { 
      stroke-linecap: round;
      animation: ray-pulse 3s ease-in-out infinite alternate;
    }
    .wave { animation: wave-flow 8s ease-in-out infinite; }
    .wave-2 { animation-delay: -4s; }
    
    @keyframes ray-pulse {
      0% { stroke-opacity: 0.3; }
      100% { stroke-opacity: 0.7; }
    }
    @keyframes wave-flow {
      0%, 100% { transform: translateX(0px); }
      50% { transform: translateX(2px); }
    }</style>
 <defs>
  <filter height="200%" id="sunGlow" width="200%" x="-50%" y="-50%">
   <feGaussianBlur in="SourceGraphic" result="blur" stdDeviation="3"/>
   <feColorMatrix in="blur" result="glow" type="matrix" values="1 0 0 0 0  0 1 0 0 0  0 0 1 0 0  0 0 0 20 -8"/>
   <feComposite in="SourceGraphic" in2="glow" operator="over"/>
  </filter>
  <filter height="200%" id="textGlow" width="200%" x="-50%" y="-50%">
   <feGaussianBlur in="SourceGraphic" result="blur" stdDeviation="2"/>
   <feColorMatrix in="blur" result="glow" type="matrix" values="1 0 0 0 0  0 1 0 0 0  0 0 1 0 0  0 0 0 15 -6"/>
   <feComposite in="SourceGraphic" in2="glow" operator="over"/>
  </filter>
  <linearGradient id="sunGrad" x1="0" x2="1">
   <stop offset="0%" stop-color="#ffd27a"/>
   <stop offset="40%" stop-color="#ffa366"/>
   <stop offset="70%" stop-color="#ff6a6a"/>
   <stop offset="100%" stop-color="#d24bb3"/>
  </linearGradient>
  <linearGradient id="wordGrad" x1="0" x2="1">
   <stop offset="0%" stop-color="#ff8a8a"/>
   <stop offset="30%" stop-color="#ff6a6a"/>
   <stop offset="60%" stop-color="#e04aa3"/>
   <stop offset="100%" stop-color="#d24bb3"/>
  </linearGradient>
  <linearGradient id="seaGrad" x1="0" x2="0" y1="0" y2="1">
   <stop offset="0%" stop-color="#004a8f"/>
   <stop offset="60%" stop-color="#003a6b"/>
   <stop offset="100%" stop-color="#001a3a"/>
  </linearGradient>
  <linearGradient id="skyGrad" x1="0" x2="0" y1="0" y2="1">
   <stop offset="0%" stop-color="#6dd3ff"/>
   <stop offset="40%" stop-color="#4a6eff"/>
   <stop offset="100%" stop-color="#001a3a"/>
  </linearGradient>
 </defs>
 <g class="layer">
  <title>Layer 1</title>
  <g id="svg_1">
   <rect fill="url(#skyGrad)" height="80" id="svg_2" opacity="0.3" width="360"/>
   <text class="logo-word logo-word--left" fill="url(#wordGrad)" filter="url(#textGlow)" font-size="32" id="svg_3" transform="matrix(1, 0, 0, 1, 0, 0)" x="46.01" y="47.85">Crims</text>
   <g id="svg_4" transform="matrix(1, 0, 0, 1, 0, 0) translate(77.9484, 9.85222) matrix(1, 0, 0, 1, 102.579, 29.8464)">
    <circle class="sun-core" cx="0" cy="0" fill="url(#sunGrad)" filter="url(#sunGlow)" id="svg_5" r="20"/>
    <g class="sun-rays" id="svg_6" stroke="rgba(255,220,120,0.6)" stroke-width="2">
     <line id="svg_7" x1="-30" x2="-45" y1="0" y2="0"/>
     <line id="svg_8" x1="30" x2="45" y1="0" y2="0"/>
     <line id="svg_9" x1="0" x2="0" y1="-30" y2="-45"/>
     <line id="svg_10" x1="0" x2="0" y1="30" y2="45"/>
     <line id="svg_11" x1="-21" x2="-32" y1="-21" y2="-32"/>
     <line id="svg_12" x1="21" x2="32" y1="-21" y2="-32"/>
     <line id="svg_13" x1="-21" x2="-32" y1="21" y2="32"/>
     <line id="svg_14" x1="21" x2="32" y1="21" y2="32"/>
    </g>
   </g>
   <g id="svg_15" transform="translate(0, 32)">
    <path class="wave wave-1" d="m0,15c65,-20 145,15 230,0c75,-12 110,10 150,0l0,25l-380,0l0,-25z" fill="url(#seaGrad)" id="svg_16" opacity="0.9"/>
    <path class="wave wave-2" d="m0,25c75,-15 145,18 230,0c65,-10 110,15 150,0l0,15l-380,0l0,-15z" fill="#0a1a3a" id="svg_17" opacity="0.5"/>
   </g>
   <text class="logo-word logo-word--right" fill="url(#wordGrad)" filter="url(#textGlow)" font-size="32" id="svg_18" x="227.71" y="48.84">n Sun</text>
  </g>
 </g>
</svg>